<svg aria-hidden="true" style="position: absolute; width: 0; height: 0; overflow: hidden;" version="1.1" xmlns="http://www.w3.org/2000/svg" xmlns:xlink="http://www.w3.org/1999/xlink">
<defs>

<symbol id="icon-vector-1" viewBox="0 0 23 32">
<path fill="#d9dcd5" style="fill: var(--color1, #d9dcd5)" d="M4.393 2.333c0.56 3.245 3.353 4.356 3.603 4.471s6.386 2.915 8.984 4.915c2.598 2.001 3.151 2.545 4.25 4.508 1.254 2.238 1.837 3.329 2.063 5.637 0.221 2.257-0.002 3.692-0.925 5.841-0.779 1.815-2.973 4.225-2.973 4.225l-6.277-0.209c0 0 4.273-2.838 5.064-4.503 0.936-1.971 1.066-3.247 0.827-5.338-0.224-1.956-0.595-3.105-1.811-4.826-1.2-1.697-2.349-2.436-4.198-3.734-2.357-1.656-4.278-2.006-6.737-3.57-1.701-1.082-2.733-1.616-3.946-3.040-1.316-1.544-1.957-2.518-2.208-4.36-0.112-0.826-0.008-2.126-0.008-2.126l4.045-0.015c0.032-0.421 0.239-0.001 0.239-0.001l-0.239 0.001c-0.020 0.266 0.030 0.868 0.247 2.125z"></path>
</symbol>


<symbol id="icon-vector-2" viewBox="0 0 23 32">
<path fill="#d9dcd5" style="fill: var(--color1, #d9dcd5)" d="M14.746 6.893c-2.177-1.134-3.94-4.94-3.595-6.893 0.652 0 1.725 0.144 2.070 0.144 1.064 0-1.476 2.097 4.86 6.032 7.908 4.911 3.364 9.679 0.748 11.115-1.794 0.985-10.64 2.729-13.717 4.768-3.613 2.395-2.722 6.797-2.473 9.622 0.051 0.574 0.086 0.201-2.588 0.201 0.316-4.394-1.028-6.794 1.783-10.11 2.703-3.188 8.035-4.044 13.17-5.4 5.003-1.321 5.447-4.318 5.176-5.084-0.518-1.465-2.789-3.016-5.435-4.394z"></path>
</symbol>


<symbol id="icon-logo" viewBox="0 0 30 32">
<path fill="none" stroke="#0147ff" style="stroke: var(--color2, #0147ff)" stroke-linejoin="miter" stroke-linecap="round" stroke-miterlimit="4" stroke-width="4" d="M14.988 13.497l12.612-0.371"></path>
<path fill="none" stroke="#0147ff" style="stroke: var(--color2, #0147ff)" stroke-linejoin="miter" stroke-linecap="round" stroke-miterlimit="4" stroke-width="4" d="M27.6 13.311l-14.306 16.689"></path>
<path fill="none" stroke="#0147ff" style="stroke: var(--color2, #0147ff)" stroke-linejoin="miter" stroke-linecap="round" stroke-miterlimit="4" stroke-width="4" d="M13.294 30l1.694-11.126"></path>
<path fill="none" stroke="#0147ff" style="stroke: var(--color2, #0147ff)" stroke-linejoin="miter" stroke-linecap="round" stroke-miterlimit="4" stroke-width="4" d="M2.282 18.874h12.329"></path>
<path fill="none" stroke="#0147ff" style="stroke: var(--color2, #0147ff)" stroke-linejoin="miter" stroke-linecap="round" stroke-miterlimit="4" stroke-width="4" d="M16.212 2l-14.212 16.967"></path>
<path fill="none" stroke="#0147ff" style="stroke: var(--color2, #0147ff)" stroke-linejoin="miter" stroke-linecap="round" stroke-miterlimit="4" stroke-width="4" d="M16.118 2l-1.506 11.497"></path>
</symbol>


<symbol id="icon-menu" viewBox="0 0 32 32">
<path stroke-linejoin="round" stroke-linecap="round" stroke-miterlimit="4" stroke-width="2.5" d="M4 16h24"></path>
<path stroke-linejoin="round" stroke-linecap="round" stroke-miterlimit="4" stroke-width="2.5" d="M4 8h24"></path>
<path stroke-linejoin="round" stroke-linecap="round" stroke-miterlimit="4" stroke-width="2.5" d="M4 24h24"></path>
</symbol>

<symbol id="icon-arrow-down" viewBox="0 0 28 32">
<path fill="#fff" style="fill: var(--color1, #fff)" d="M0 18.015l2.303-2.333 9.606 9.606v-24.879h3.333v24.879l9.576-9.606 2.333 2.333-13.576 13.576-13.576-13.576z"></path>
</symbol>

<symbol id="icon-arrow-up" viewBox="0 0 32 32">
<path fill="#fff" style="fill: var(--color1, #fff)" d="M27.414 12.586l-10-10c-0.781-0.781-2.047-0.781-2.828 0l-10 10c-0.781 0.781-0.781 2.047 0 2.828s2.047 0.781 2.828 0l6.586-6.586v19.172c0 1.105 0.895 2 2 2s2-0.895 2-2v-19.172l6.586 6.586c0.39 0.39 0.902 0.586 1.414 0.586s1.024-0.195 1.414-0.586c0.781-0.781 0.781-2.047 0-2.828z"></path>
</symbol>

<symbol id="icon-close" viewBox="0 0 32 32">
<path fill="none" stroke-linejoin="round" stroke-linecap="round" stroke-miterlimit="4" stroke-width="2.6667" d="M24 8l-16 16"></path>
<path fill="none" stroke-linejoin="round" stroke-linecap="round" stroke-miterlimit="4" stroke-width="2.6667" d="M8 8l16 16"></path>
</symbol>
</defs>
</svg>
